<svg width="57" height="56" viewBox="0 0 57 56" fill="none" xmlns="http://www.w3.org/2000/svg">
<path d="M5.1665 28.0003C5.1665 17.0009 5.1665 11.5012 8.58359 8.08408C12.0007 4.66699 17.5004 4.66699 28.4998 4.66699C39.4993 4.66699 44.999 4.66699 48.4161 8.08408C51.8332 11.5012 51.8332 17.0009 51.8332 28.0003C51.8332 38.9998 51.8332 44.4995 48.4161 47.9166C44.999 51.3337 39.4993 51.3337 28.4998 51.3337C17.5004 51.3337 12.0007 51.3337 8.58359 47.9166C5.1665 44.4995 5.1665 38.9998 5.1665 28.0003Z" stroke="#0C1024" stroke-width="2.5"/>
<path d="M5.1665 30.333H12.5404C14.6525 30.333 15.7085 30.333 16.6368 30.7599C17.5651 31.1869 18.2523 31.9887 19.6268 33.5923L21.0395 35.2404C22.414 36.844 23.1013 37.6458 24.0295 38.0727C24.9578 38.4997 26.0138 38.4997 28.1259 38.4997H28.8738C30.9858 38.4997 32.0419 38.4997 32.9701 38.0727C33.8984 37.6458 34.5857 36.844 35.9602 35.2404L37.3728 33.5923C38.7473 31.9887 39.4346 31.1869 40.3629 30.7599C41.2911 30.333 42.3472 30.333 44.4592 30.333H51.8332" stroke="#0C1024" stroke-width="2.5" stroke-linecap="round"/>
</svg>
