<svg width="24" height="25" viewBox="0 0 24 25" fill="none" xmlns="http://www.w3.org/2000/svg">
<path d="M5 15.4999H6.39445C7.1804 15.4999 7.57337 15.4999 7.90501 15.6774C8.23665 15.8549 8.45463 16.1819 8.8906 16.8358L9.05039 17.0755C9.47306 17.7095 9.68439 18.0265 9.97087 18.0095C10.2573 17.9925 10.4297 17.6527 10.7743 16.9731L12.7404 13.0964C13.0987 12.3898 13.2779 12.0365 13.5711 12.0247C13.8642 12.0129 14.0711 12.3508 14.485 13.0264L15.1222 14.0668C15.5512 14.7671 15.7656 15.1172 16.1072 15.3086C16.4487 15.4999 16.8593 15.4999 17.6805 15.4999H19" stroke="black" stroke-width="1.5" stroke-linecap="round"/>
<path d="M2 12.5C2 7.78595 2 5.42893 3.46447 3.96447C4.92893 2.5 7.28595 2.5 12 2.5C16.714 2.5 19.0711 2.5 20.5355 3.96447C22 5.42893 22 7.78595 22 12.5C22 17.214 22 19.5711 20.5355 21.0355C19.0711 22.5 16.714 22.5 12 22.5C7.28595 22.5 4.92893 22.5 3.46447 21.0355C2 19.5711 2 17.214 2 12.5Z" stroke="black" stroke-width="1.5"/>
</svg>
