<svg id="Layer_1" data-name="Layer 1" xmlns="http://www.w3.org/2000/svg" xmlns:xlink="http://www.w3.org/1999/xlink" viewBox="0 0 785.87 784.34"><defs><style>.cls-1{fill:#0d0e0e;}.cls-2{fill:#f9b079;}.cls-3{fill:#f27260;}.cls-4{fill:url(#linear-gradient);}.cls-5{fill:url(#linear-gradient-2);}.cls-6{fill:url(#linear-gradient-3);}.cls-7{fill:url(#linear-gradient-4);}.cls-8{fill:#1e91cf;}.cls-9{fill:url(#linear-gradient-5);}.cls-10{fill:url(#linear-gradient-6);}.cls-11{fill:url(#linear-gradient-7);}</style><linearGradient id="linear-gradient" x1="543.87" y1="357.93" x2="543.87" y2="670.67" gradientUnits="userSpaceOnUse"><stop offset="0" stop-color="#f9b079"/><stop offset="0.26" stop-color="#f8a575"/><stop offset="0.71" stop-color="#f58869"/><stop offset="1" stop-color="#f27260"/></linearGradient><linearGradient id="linear-gradient-2" x1="612.41" y1="310.59" x2="612.41" y2="617.54" gradientUnits="userSpaceOnUse"><stop offset="0" stop-color="#f9b079"/><stop offset="0.01" stop-color="#f9af78"/><stop offset="0.25" stop-color="#f6946e"/><stop offset="0.49" stop-color="#f48166"/><stop offset="0.74" stop-color="#f27662"/><stop offset="1" stop-color="#f27260"/></linearGradient><linearGradient id="linear-gradient-3" x1="681.03" y1="335.15" x2="681.03" y2="580.45" gradientUnits="userSpaceOnUse"><stop offset="0" stop-color="#f9b079"/><stop offset="0.1" stop-color="#f79a70"/><stop offset="0.22" stop-color="#f48869"/><stop offset="0.37" stop-color="#f37b64"/><stop offset="0.57" stop-color="#f27461"/><stop offset="1" stop-color="#f27260"/></linearGradient><linearGradient id="linear-gradient-4" x1="311.14" y1="699.77" x2="311.14" y2="421.59" gradientTransform="translate(622.29 992.76) rotate(-180)" gradientUnits="userSpaceOnUse"><stop offset="0" stop-color="#00a6a6"/><stop offset="1" stop-color="#f9b079"/></linearGradient><linearGradient id="linear-gradient-5" x1="7532.53" y1="650.71" x2="7532.53" y2="230.68" gradientTransform="matrix(1, 0, 0, -1, -7290.75, 992.81)" gradientUnits="userSpaceOnUse"><stop offset="0" stop-color="#00a6a6"/><stop offset="0.1" stop-color="#10a7a3"/><stop offset="0.3" stop-color="#3ba89b"/><stop offset="0.57" stop-color="#80ab8f"/><stop offset="0.91" stop-color="#ddaf7e"/><stop offset="1" stop-color="#f9b079"/></linearGradient><linearGradient id="linear-gradient-6" x1="7601.01" y1="950.74" x2="7601.01" y2="-64.69" gradientTransform="matrix(1, 0, 0, -1, -7427.69, 972.75)" gradientUnits="userSpaceOnUse"><stop offset="0.15" stop-color="#1e91cf"/><stop offset="0.46" stop-color="#0f9cba"/><stop offset="0.71" stop-color="#00a6a6"/></linearGradient><linearGradient id="linear-gradient-7" x1="104.84" y1="571.13" x2="104.84" y2="348.33" gradientTransform="translate(209.68 946.37) rotate(180)" gradientUnits="userSpaceOnUse"><stop offset="0.15" stop-color="#1e91cf"/><stop offset="0.62" stop-color="#0f9cba"/><stop offset="1" stop-color="#00a6a6"/></linearGradient></defs><title>sp_logo_symbol_master_ light_background_svg</title><path class="cls-1" d="M272.33,215.08h244s2.61,9.14-6.16,14H278.3S269.34,226.65,272.33,215.08Z"/><path class="cls-1" d="M316.87,251.08H471.7s1.66,9.14-3.91,14H320.65S315,262.65,316.87,251.08Z"/><path class="cls-1" d="M676.83,571.08C637,680,536,759.83,415.63,768.55q-10.89.83-22,.81-11.44,0-22.65-.86c-120.42-9-221.37-89.06-260.85-198.28a14.31,14.31,0,0,0,4.64-2.54C153.34,675.31,252.56,754.29,371,763.27q11.21.87,22.62.87c7.39,0,14.73-.26,22-.81,118.31-8.73,217.51-87.23,256.47-194.42A15.24,15.24,0,0,0,676.83,571.08Z"/><path class="cls-1" d="M680.57,375.8a15.45,15.45,0,0,0-5.15,1A297.66,297.66,0,0,0,510.54,195.9H276.72a297.65,297.65,0,0,0-164.91,181,15,15,0,0,0-5-1.49A302.85,302.85,0,0,1,280.45,188.67c11.83-14,39.07-25.1,73.55-30v-16.4h-4.36a6.72,6.72,0,0,1-7-6.42,6.14,6.14,0,0,1,2.06-4.57,6.64,6.64,0,0,1,2-1.26s0,0,.08,0c4.38-2.82,22.93-4.93,45.15-4.93s41,2.14,45.29,5a6.43,6.43,0,0,1,4,5.83,6.1,6.1,0,0,1-2.07,4.54,7.15,7.15,0,0,1-4.93,1.88h-4.36V158c37.27,4.65,66.78,16.43,78.77,31.39A302.72,302.72,0,0,1,680.57,375.8Z"/><path class="cls-1" d="M397.69,19.74V110h-9.51V19.74A4.76,4.76,0,0,1,392.94,15a4.67,4.67,0,0,1,3.35,1.4A4.77,4.77,0,0,1,397.69,19.74Z"/><path class="cls-1" d="M415.59,763.32l.05,5.22q-10.89.83-22,.81-11.43,0-22.64-.86l0-5.22,1.48-201.63h0l.42-73.6-.76-11.78-.18-1.33L350.74,285h13.42l28.44,176.6.4,2.3c.1.63,1.41.63,1.49,0l.33-2.22,28.92-176.6h12.79L414.83,475l-.39,3.37-.68,9.69-.16,49.08v8.8Z"/><rect class="cls-2" x="459.08" y="433.04" width="32.21" height="126.74" rx="16.11"/><rect class="cls-3" x="733.46" y="435.5" width="32.21" height="81.6" rx="16.11"/><rect class="cls-4" x="527.76" y="375.25" width="32.21" height="242.31" rx="16.11"/><rect class="cls-5" x="596.3" y="333.46" width="32.21" height="306.95" rx="16.11"/><rect class="cls-6" x="664.93" y="375.78" width="32.21" height="195.88" rx="16.11"/><rect class="cls-7" x="295.04" y="433.01" width="32.21" height="126.74" rx="16.11" transform="translate(622.29 992.76) rotate(180)"/><rect class="cls-8" x="20.2" y="435.26" width="32.21" height="81.6" rx="16.11" transform="translate(72.61 952.12) rotate(-180)"/><rect class="cls-9" x="225.68" y="375.25" width="32.21" height="242.31" rx="16.11" transform="translate(483.58 992.81) rotate(-180)"/><rect class="cls-10" x="157.21" y="333.34" width="32.21" height="306.07" rx="16.11" transform="translate(346.63 972.75) rotate(180)"/><rect class="cls-11" x="88.74" y="375.25" width="32.21" height="195.88" rx="16.11" transform="translate(209.68 946.37) rotate(-180)"/></svg>